<svg width="32" height="32" viewBox="0 0 32 32" fill="none" xmlns="http://www.w3.org/2000/svg">
<circle cx="16" cy="16" r="16" fill="#121212"/>
<path fill-rule="evenodd" clip-rule="evenodd" d="M16.1278 20.825C15.7767 20.825 15.4255 20.6996 15.1579 20.449C13.8978 19.2693 13.2041 17.7017 13.2041 16.0342C13.2041 14.3838 13.8855 12.8279 15.1228 11.6529C15.6546 11.1479 16.5232 11.1415 17.062 11.6392C17.6018 12.1364 17.6081 12.9493 17.0766 13.4541C16.3484 14.1461 15.9471 15.0625 15.9471 16.0342C15.9471 17.0161 16.3558 17.9394 17.0977 18.6339C17.6331 19.1352 17.6331 19.948 17.0973 20.4491C16.8297 20.6996 16.4786 20.825 16.1278 20.825" fill="#50E2C6"/>
<mask id="mask0_113_17" style="mask-type:luminance" maskUnits="userSpaceOnUse" x="7" y="10" width="19" height="13">
<path fill-rule="evenodd" clip-rule="evenodd" d="M7 10H26V22.5947H7V10Z" fill="white"/>
</mask>
<g mask="url(#mask0_113_17)">
<path fill-rule="evenodd" clip-rule="evenodd" d="M19.6095 20.0059C19.2783 20.0059 18.9547 19.9597 18.6427 19.8784C19.3592 18.8609 19.7804 17.6271 19.7804 16.2978C19.7804 14.9679 19.3592 13.7339 18.6427 12.7166C18.9545 12.6351 19.2779 12.5894 19.6095 12.5894C21.6843 12.5894 23.3725 14.2527 23.3725 16.2978C23.3725 18.3421 21.6843 20.0059 19.6095 20.0059M9.62745 16.2978C9.62745 14.2527 11.3153 12.5894 13.3903 12.5894C15.4652 12.5894 17.1532 14.2527 17.1532 16.2978C17.1532 18.3421 15.4652 20.0059 13.3903 20.0059C11.3153 20.0059 9.62745 18.3421 9.62745 16.2978M19.6093 10C18.4999 10 17.4362 10.2773 16.4957 10.7963C15.5754 10.2901 14.5168 10 13.3899 10C9.86639 10 6.99969 12.8251 6.99969 16.2975C6.99969 19.7696 9.86639 22.5947 13.3899 22.5947C14.5168 22.5947 15.5758 22.3044 16.4959 21.7978C17.4373 22.317 18.5014 22.5947 19.6093 22.5947C23.133 22.5947 25.9997 19.7696 25.9997 16.2975C25.9997 12.8251 23.133 10 19.6093 10" fill="#EF294B"/>
</g>
</svg>
