<?xml version="1.0" encoding="UTF-8"?>
<svg version="1.1" xmlns="http://www.w3.org/2000/svg" width="512" height="512">
<path d="M0 0 C168.96 0 337.92 0 512 0 C512 168.96 512 337.92 512 512 C343.04 512 174.08 512 0 512 C0 343.04 0 174.08 0 0 Z " fill="#F4F6F8" transform="translate(0,0)"/>
<path d="M0 0 C0.37365113 8.34535185 0.65639804 16.68711894 0.82899475 25.03881168 C0.91191838 28.91896927 1.02393748 32.79334102 1.20703125 36.67016602 C2.45250439 63.75073781 2.45250439 63.75073781 -3.35375977 71.20678711 C-6.54592491 74.48753128 -10.0312 77.07809219 -13.87672424 79.54148865 C-17.59596893 82.09629604 -20.72171111 85.28882616 -23.9375 88.4375 C-24.67669678 89.13029053 -25.41589355 89.82308105 -26.17749023 90.53686523 C-30.95711009 95.0187971 -35.7297422 99.50810691 -40.5 104 C-46.01528128 109.1934413 -51.53552144 114.38150881 -57.0625 119.5625 C-57.70920654 120.16940674 -58.35591309 120.77631348 -59.0222168 121.40161133 C-62.49041178 124.65490509 -65.96657217 127.89919379 -69.453125 131.1328125 C-70.18265381 131.81142334 -70.91218262 132.49003418 -71.66381836 133.18920898 C-73.06061457 134.48824057 -74.45974266 135.78477087 -75.86157227 137.07836914 C-78.87287712 139.88314049 -81.70059445 142.55516567 -84 146 C-82.92238403 146.4007373 -82.92238403 146.4007373 -81.82299805 146.80957031 C-78.96752653 148.01369373 -76.4695401 149.42326882 -73.83203125 151.046875 C-72.85556641 151.645 -71.87910156 152.243125 -70.87304688 152.859375 C-69.35807617 153.79523438 -69.35807617 153.79523438 -67.8125 154.75 C-65.81919325 155.97425607 -63.82570509 157.19821683 -61.83203125 158.421875 C-60.95264893 158.96424805 -60.0732666 159.50662109 -59.16723633 160.06542969 C-56.18161711 162.00807143 -56.18161711 162.00807143 -53.44384766 163.03103638 C-50.41949828 164.41108223 -48.33037341 165.61565209 -46 168 C-44.58760848 173.00105406 -44.83200069 177.8873684 -45.0234375 183.0234375 C-45.04210659 184.49454936 -45.05633283 185.96572372 -45.0663147 187.43692017 C-45.10436397 191.29540961 -45.20245251 195.15008887 -45.31335449 199.00708008 C-45.41595623 202.94820603 -45.46138678 206.88995261 -45.51171875 210.83203125 C-45.61872787 218.55641829 -45.78921121 226.27767387 -46 234 C-51.86337319 230.83266627 -57.70231823 227.66063975 -63.390625 224.1875 C-64.50066895 223.51154785 -65.61071289 222.8355957 -66.75439453 222.13916016 C-67.91962471 221.42615311 -69.08482587 220.71309863 -70.25 220 C-71.48146011 219.24894353 -72.71307072 218.49813379 -73.94482422 217.74755859 C-76.43698058 216.22849168 -78.92831832 214.70809653 -81.41894531 213.18652344 C-84.71185384 211.17518409 -88.00772833 209.16875679 -91.3046875 207.1640625 C-92.28042725 206.57044922 -93.25616699 205.97683594 -94.26147461 205.36523438 C-96.15187647 204.21639095 -98.04329624 203.0692206 -99.93579102 201.92382812 C-104.41971022 199.20519066 -108.87449151 196.45337908 -113.28515625 193.6171875 C-114.11450684 193.09044434 -114.94385742 192.56370117 -115.79833984 192.02099609 C-117.34762035 191.03468733 -118.88893143 190.03570239 -120.42041016 189.02197266 C-122.6670716 187.54803411 -122.6670716 187.54803411 -126 186 C-129.15443639 187.08963003 -131.26859363 188.98783994 -133.65234375 191.2734375 C-134.33941406 191.92699219 -135.02648437 192.58054687 -135.734375 193.25390625 C-136.46140625 193.95386719 -137.1884375 194.65382813 -137.9375 195.375 C-139.47736896 196.84166637 -141.01773758 198.30780831 -142.55859375 199.7734375 C-143.69530518 200.8577002 -143.69530518 200.8577002 -144.85498047 201.96386719 C-147.70905809 204.67306448 -150.59930927 207.34091757 -153.5 210 C-158.53657866 214.62820742 -163.52401473 219.30674744 -168.5 224 C-173.75582782 228.9537077 -179.01647222 233.90174907 -184.3125 238.8125 C-184.83328125 239.29783203 -185.3540625 239.78316406 -185.890625 240.28320312 C-188.49344042 242.68925398 -191.14871035 244.89823121 -194 247 C-194.23270821 238.56773082 -194.40987575 230.13682361 -194.51812172 221.70212746 C-194.57010273 217.78446914 -194.64047451 213.86902221 -194.75439453 209.95263672 C-194.8638444 206.16580222 -194.92299941 202.38108001 -194.94877243 198.59278488 C-194.96711259 197.15492892 -195.00293069 195.71717617 -195.05730057 194.28023148 C-195.2749321 188.28458437 -195.43824815 183.04682132 -191.85882568 177.95281982 C-189.35449979 175.41873477 -186.80504364 173.19212722 -184 171 C-182.55819909 169.7549633 -181.11980621 168.50594792 -179.6875 167.25 C-179.05199219 166.70730469 -178.41648438 166.16460937 -177.76171875 165.60546875 C-175.20711595 163.27743826 -173.12431361 160.72177681 -171 158 C-174.50564823 156.57663752 -174.50564823 156.57663752 -178.08197021 155.3465271 C-184.41485807 153.24744644 -190.09829651 150.59424384 -194 145 C-196.91312348 134.98351948 -195.7768206 123.94946319 -195.23596191 113.64959717 C-195.05047082 109.74275477 -194.96934373 105.833821 -194.87890625 101.92382812 C-194.68688928 94.27681858 -194.38057872 86.64019685 -194 79 C-187.85410303 82.32348287 -181.73480887 85.66988382 -175.734375 89.25 C-175.10110291 89.62581711 -174.46783081 90.00163422 -173.81536865 90.38883972 C-171.79230226 91.59042763 -169.77106275 92.79504556 -167.75 94 C-166.34181643 94.83767935 -164.93361308 95.67532547 -163.52539062 96.51293945 C-151.63362638 103.59347535 -139.79734836 110.7631674 -128 118 C-122.709848 114.22338154 -118.00292465 110.24345534 -113.5 105.5625 C-109.41124453 101.38899129 -105.28098705 97.38951731 -100.82421875 93.60546875 C-98.08211814 91.19218534 -95.56175172 88.5705291 -93 85.96875 C-90.43694772 83.44574541 -87.72654176 81.12437183 -85 78.78125 C-82.91662922 76.9257479 -80.95718793 74.98776899 -79 73 C-75.79970478 69.74970017 -72.45775424 66.75275755 -69 63.78125 C-66.91662922 61.9257479 -64.95718793 59.98776899 -63 58 C-59.79970478 54.74970017 -56.45775424 51.75275755 -53 48.78125 C-50.91662922 46.9257479 -48.95718793 44.98776899 -47 43 C-43.79970478 39.74970017 -40.45775424 36.75275755 -37 33.78125 C-34.21114467 31.29742572 -31.62313017 28.63288563 -29.00390625 25.97265625 C-26.41753849 23.42662171 -23.6846472 21.07978443 -20.93359375 18.71484375 C-18.44118784 16.50440699 -16.13002433 14.14158441 -13.796875 11.765625 C-11.23420129 9.24751953 -8.52543569 6.91377295 -5.796875 4.578125 C-3.98035364 3.02195623 -3.98035364 3.02195623 -2.328125 1.296875 C-1 0 -1 0 0 0 Z " fill="#2B8664" transform="translate(354,133)"/>
<path d="M0 0 C0.37365113 8.34535185 0.65639804 16.68711894 0.82899475 25.03881168 C0.91191838 28.91896927 1.02393748 32.79334102 1.20703125 36.67016602 C2.45250439 63.75073781 2.45250439 63.75073781 -3.35375977 71.20678711 C-6.54592491 74.48753128 -10.0312 77.07809219 -13.87672424 79.54148865 C-17.59596893 82.09629604 -20.72171111 85.28882616 -23.9375 88.4375 C-24.67669678 89.13029053 -25.41589355 89.82308105 -26.17749023 90.53686523 C-30.95711009 95.0187971 -35.7297422 99.50810691 -40.5 104 C-46.01528041 109.19344047 -51.53520458 114.38184768 -57.0625 119.5625 C-57.70993164 120.16940674 -58.35736328 120.77631348 -59.02441406 121.40161133 C-62.48729724 124.6470957 -65.95190097 127.89072939 -69.41796875 131.1328125 C-70.14298584 131.81142334 -70.86800293 132.49003418 -71.61499023 133.18920898 C-73.00068486 134.48616845 -74.38688566 135.78258739 -75.77368164 137.07836914 C-78.89968484 140.00495143 -81.99804059 142.94497565 -85 146 C-85 145.34 -85 144.68 -85 144 C-86.08087891 143.5970874 -86.08087891 143.5970874 -87.18359375 143.18603516 C-89.9987106 142.00054299 -92.46174813 140.6214485 -95.0625 139.0234375 C-96.01890381 138.43836426 -96.97530762 137.85329102 -97.96069336 137.25048828 C-98.96366455 136.63157715 -99.96663574 136.01266602 -101 135.375 C-102.02424072 134.74706543 -103.04848145 134.11913086 -104.10375977 133.47216797 C-107.0714158 131.65173027 -110.03600431 129.82638937 -113 128 C-114.46726788 127.0986652 -115.93469097 126.19758294 -117.40234375 125.296875 C-120.2708216 123.53543615 -123.13660733 121.76969758 -126 120 C-124.58868805 118.34773235 -123.17639142 116.6962979 -121.75976562 115.04858398 C-120.63954817 113.74451286 -119.52321871 112.43708433 -118.41210938 111.12524414 C-114.22829818 106.24433985 -109.78065086 101.79877427 -105.0625 97.4375 C-103.95660522 96.40604858 -103.95660522 96.40604858 -102.82836914 95.35375977 C-101.30135414 93.92966398 -99.77294953 92.50705679 -98.24316406 91.0859375 C-95.45746307 88.49549025 -92.68319886 85.89302963 -89.90991211 83.28930664 C-87.92939856 81.42989393 -85.94735648 79.57212463 -83.96484375 77.71484375 C-79.97573192 73.97744812 -75.98777965 70.23881695 -72 66.5 C-70.66667174 65.24999459 -69.33333841 63.99999459 -68 62.75 C-67.34 62.13125 -66.68 61.5125 -66 60.875 C-58.66666667 54 -51.33333333 47.125 -44 40.25 C-43.33991943 39.63116943 -42.67983887 39.01233887 -41.99975586 38.37475586 C-40.66725663 37.125548 -39.33473712 35.87636178 -38.00219727 34.62719727 C-33.9826206 30.859059 -29.963829 27.09008574 -25.94555664 23.32055664 C-23.96183217 21.46031751 -21.97708789 19.60117177 -19.9921875 17.7421875 C-17.22229856 15.14772943 -14.45761594 12.54784421 -11.6953125 9.9453125 C-10.31776027 8.65098639 -8.94015789 7.35671365 -7.5625 6.0625 C-6.91724365 5.45269287 -6.2719873 4.84288574 -5.60717773 4.21459961 C-1.11319778 0 -1.11319778 0 0 0 Z " fill="#0196A6" transform="translate(354,133)"/>
<path d="M0 0 C0.34051709 8.18796734 0.63045753 16.37555767 0.85746098 24.56738186 C0.9644495 28.37206443 1.08824207 32.17458695 1.25170898 35.97729492 C1.40908697 39.65323284 1.52066047 43.32807221 1.60171318 47.00645638 C1.64032325 48.40347918 1.69492086 49.80016201 1.76637459 51.19589043 C2.30798437 62.08215173 2.30798437 62.08215173 -0.90725708 66.79653931 C-3.16293063 69.07939975 -5.45593779 71.04860155 -8 73 C-9.36037375 74.19086312 -10.71565508 75.3876072 -12.0625 76.59375 C-13.04089844 77.43486328 -13.04089844 77.43486328 -14.0390625 78.29296875 C-17.45125518 81.26334365 -20.71734001 84.38806937 -24 87.5 C-25.49466552 88.91159192 -26.98946032 90.32304695 -28.484375 91.734375 C-29.23525391 92.44400391 -29.98613281 93.15363281 -30.75976562 93.88476562 C-39.22277106 101.87555455 -47.71812665 109.83277276 -56.25 117.75 C-56.7749707 118.23952148 -57.29994141 118.72904297 -57.84082031 119.23339844 C-60.46021447 121.65672501 -63.12904618 123.88464084 -66 126 C-66.23270821 117.56773082 -66.40987575 109.13682361 -66.51812172 100.70212746 C-66.57010273 96.78446914 -66.64047451 92.86902221 -66.75439453 88.95263672 C-66.8638444 85.16580222 -66.92299941 81.38108001 -66.94877243 77.59278488 C-66.96711259 76.15492892 -67.00293069 74.71717617 -67.05730057 73.28023148 C-67.27482567 67.28751644 -67.43977477 62.04814072 -63.86102295 56.95721436 C-61.35583942 54.42385869 -58.80119188 52.19719058 -56 50 C-54.53647525 48.71421845 -53.07708795 47.42368374 -51.625 46.125 C-50.985625 45.57972656 -50.34625 45.03445313 -49.6875 44.47265625 C-48.27139667 43.23684386 -46.93664801 41.90866507 -45.625 40.5625 C-44 39 -44 39 -42 39 C-41.67 38.01 -41.34 37.02 -41 36 C-39.43359375 34.45703125 -39.43359375 34.45703125 -37.4375 32.8125 C-34.48987358 30.31673788 -31.70425934 27.75780903 -29 25 C-25.8009886 21.75100405 -22.46075537 18.75493465 -19.00390625 15.78515625 C-16.89756062 13.90874309 -14.91669569 11.94720352 -12.9375 9.9375 C-3.11622807 0 -3.11622807 0 0 0 Z " fill="#19827B" transform="translate(226,254)"/>
<path d="M0 0 C6.14589697 3.32348287 12.26519113 6.66988382 18.265625 10.25 C18.89889709 10.62581711 19.53216919 11.00163422 20.18463135 11.38883972 C22.20769774 12.59042763 24.22893725 13.79504556 26.25 15 C27.65818357 15.83767935 29.06638692 16.67532547 30.47460938 17.51293945 C42.36637362 24.59347535 54.20265164 31.7631674 66 39 C64.67193785 41.97826201 63.26488767 43.9445046 60.8671875 46.14453125 C60.23353271 46.73177979 59.59987793 47.31902832 58.94702148 47.92407227 C58.26325439 48.54725342 57.5794873 49.17043457 56.875 49.8125 C55.42557833 51.15082194 53.97636575 52.48937035 52.52734375 53.828125 C51.78081543 54.51455078 51.03428711 55.20097656 50.26513672 55.90820312 C48.04065755 57.96245378 45.83189679 60.03211345 43.62890625 62.109375 C42.92588379 62.77219482 42.22286133 63.43501465 41.49853516 64.11791992 C40.16305096 65.37794499 38.82805868 66.63849171 37.49365234 67.8996582 C33.89783553 71.28028859 30.24042539 74.55670931 26.46508789 77.73608398 C25.2636364 78.77256364 24.12200173 79.87799827 23 81 C23 80.34 23 79.68 23 79 C19.49435177 77.57663752 19.49435177 77.57663752 15.91802979 76.3465271 C9.58514193 74.24744644 3.90170349 71.59424384 0 66 C-2.91312348 55.98351948 -1.7768206 44.94946319 -1.23596191 34.64959717 C-1.05047082 30.74275477 -0.96934373 26.833821 -0.87890625 22.92382812 C-0.68688928 15.27681858 -0.38057872 7.64019685 0 0 Z " fill="#789830" transform="translate(160,212)"/>
</svg>
