<svg width="500" height="500" viewBox="0 0 500 500" fill="none" xmlns="http://www.w3.org/2000/svg">
<path d="M131.135 198.785C130.831 204.624 131.135 210.557 131.135 216.297V272.358H162.878V221.032C162.878 205.022 162.778 190.833 162.878 187.913C163.49 174.027 167.257 164.971 174.477 157.62H172.855C157.384 157.62 142.834 166.378 135.812 179.96C132.668 185.909 131.548 192.35 131.14 198.785H131.135Z" fill="#4C0677"/>
<path d="M296.996 275.801C308.925 275.801 319.017 271.171 326.661 263.317C302.908 263.317 287.615 247.412 286.694 221.932C286.49 216.098 286.39 201.6 286.39 184.889V148.443H254.58V197.676C254.58 212.572 254.475 225.458 255.495 234.321C258.451 259.189 273.854 275.801 296.996 275.801Z" fill="#4C0677"/>
<path d="M203.007 145C191.078 145 180.98 149.63 173.336 157.484C197.09 157.484 212.383 173.389 213.304 198.864C213.508 204.703 213.607 235.912 213.607 235.912V272.358H245.418V223.125C245.418 208.224 245.523 195.343 244.502 186.48C241.546 161.512 226.148 145 203.007 145ZM368.863 222.016C369.171 216.177 368.863 210.238 368.863 204.504V148.443H337.12V199.769C337.12 215.779 337.219 229.963 337.12 232.888C336.508 246.774 332.741 255.83 325.521 263.181H327.143C342.614 263.181 357.164 254.423 364.185 240.835C367.335 234.897 368.455 228.556 368.863 222.016Z" fill="#4C0677"/>
<path d="M176.806 309.137C171.089 309.137 166.492 312.026 163.782 316.963V310.037H154.007V353.91H163.786V330.139C163.786 323.215 168.027 318.764 174.39 318.764C180.636 318.764 184.76 323.277 184.76 330.139V353.91H194.597V328.874C194.659 316.657 187.823 309.137 176.809 309.137H176.806ZM243.309 310.495H232.382L220.614 340.688L208.785 310.495H197.979L216.351 353.913H224.936L243.309 310.495ZM289.991 330.934C289.991 318.179 280.391 309.137 268.574 309.137C255.974 309.137 246.016 318.959 246.016 331.655C246.016 344.709 255.974 354.59 268.753 354.59C279.491 354.59 287.831 348.542 289.449 339.32H279.432C278.532 343.095 274.334 345.548 268.933 345.548C261.855 345.548 257.415 341.535 256.153 335.067H289.69C289.87 334.29 289.991 332.075 289.991 330.937V330.934ZM256.453 326.625C257.895 321.236 262.152 318.12 268.094 318.12C274.093 318.12 278.291 321.594 279.191 326.625H256.453ZM316.493 354.59C326.083 354.59 333.291 348.722 333.291 340.818C333.291 322.612 308.035 330.696 308.035 321.894C308.035 319.141 310.776 317.403 314.705 317.403C319.234 317.403 322.269 319.797 322.689 322.792H332.635C331.682 313.929 323.822 309.137 314.884 309.137C304.759 309.137 298.445 314.946 298.445 322.55C298.445 339.141 323.58 331.596 323.58 340.938C323.58 343.992 320.722 346.027 315.958 346.027C311.073 346.027 307.321 343.512 306.962 339.679H297.434C298.386 349.084 305.83 354.59 316.493 354.59ZM366.38 319.587V310.049H354.965V298.281H344.982V310.052H336.672V319.59H344.982V337.514C344.982 348.682 351.376 354.593 361.062 354.593C362.677 354.593 364.889 354.414 366.442 354.049V344.756C365.383 345.002 364.299 345.124 363.212 345.118C358.371 345.118 355.023 342.884 355.023 337.273V319.528H366.38V319.59V319.587Z" fill="#4C0677"/>
<path d="M132.34 310.123V353.913H142.254V310.123H132.34ZM131 297.857C131 294.455 133.858 291.497 137.342 291.497C140.825 291.497 143.77 294.455 143.77 297.857C143.765 299.562 143.086 301.196 141.882 302.403C140.678 303.611 139.047 304.294 137.342 304.304C133.858 304.304 131 301.44 131 297.857Z" fill="#4C0677"/>
</svg>
