<svg xmlns="http://www.w3.org/2000/svg" viewBox="0 0 500 500"><defs><style>.cls-1{fill:none;}.cls-2{fill:#209425;}</style></defs><g id="Camada_2" data-name="Camada 2"><g id="fundo"><rect class="cls-1" width="500" height="500" rx="250"/></g><g id="logos"><path class="cls-2" d="M249.8,400.13C190.08,400,143.42,352.76,143,292.89c-.4-58.71,49.65-107.74,109-106.5,57.94,1.2,105.34,48.48,105.11,107C356.86,353.11,309.51,400.22,249.8,400.13ZM331.53,293c-.76-24.33-7.15-46.79-22.26-66.32-30.77-39.79-83.82-41.16-116-3-33.58,39.76-32.6,102.81,2.2,141.66,30.13,33.64,78.56,33.83,108.88.37C323,345.1,330.8,320.4,331.53,293Z"/><path class="cls-2" d="M279.11,99.87l10.43,21L216.33,152l-.65-.91Z"/></g></g></svg>