<svg viewBox="0 0 500 500" fill="none" xmlns="http://www.w3.org/2000/svg"><path fill-rule="evenodd" clip-rule="evenodd" d="M380.035 188.096C383.344 185.329 385 181.784 385 177.465C385 173.279 383.197 170.176 379.597 168.15C382.747 166.125 384.323 163.202 384.323 159.376C384.323 155.193 382.713 151.75 379.495 149.052C376.272 146.351 372.165 145 367.163 145C362.433 145 358.48 146.272 355.306 148.815C352.131 151.356 350.185 154.897 349.462 159.439H361.988C362.295 158.398 362.738 157.529 363.346 156.881C364.36 155.801 365.656 155.26 367.23 155.26C368.807 155.26 370.057 155.666 370.981 156.476C371.905 157.286 372.366 158.363 372.366 159.714C372.366 160.929 371.871 161.909 370.879 162.652C369.888 163.394 368.559 163.765 366.891 163.765H362.78V172.945H367.23C368.987 172.945 370.362 173.336 371.353 174.124C372.344 174.912 372.839 175.958 372.839 177.262C372.839 178.613 372.332 179.705 371.319 180.538C370.304 181.367 369.009 181.784 367.432 181.784C364.872 181.784 363.113 180.487 362.124 177.936H348.999C349.642 182.358 351.631 185.846 354.967 188.399C358.325 190.964 362.433 192.246 367.297 192.246C372.478 192.246 376.723 190.863 380.035 188.096ZM284.209 233.879C284.209 241.891 281.486 249.262 276.954 255.183C284.837 261.643 289.88 271.445 289.88 282.402C289.88 301.811 274.073 317.601 254.643 317.601H217.409H184.566V269.076V247.203V198.68H248.971C268.401 198.68 284.209 214.471 284.209 233.879ZM213.801 295.726H245.829C253.185 295.726 259.169 289.751 259.169 282.402C259.169 275.054 253.185 269.076 245.829 269.076H213.801V295.726ZM213.801 220.553H243.195C250.549 220.553 256.533 226.532 256.533 233.879C256.533 241.227 250.549 247.203 243.195 247.203H213.801V220.553ZM184.846 175.896V161.329H140V354.999H184.846V340.385H154.537V175.896H184.846ZM289.035 355V340.386H319.344V175.898H289.035V161.331H333.883V355H289.035Z" fill="#004685"/></svg>
