<svg width="500" height="500" viewBox="0 0 500 500" fill="none" xmlns="http://www.w3.org/2000/svg">
<path d="M210.714 272.196C214.994 268.453 217.784 263.533 219.099 257.443H261.352C259.416 274.851 252.401 288.945 240.313 299.735C228.221 310.525 213.333 315.923 195.661 315.923C182.77 315.923 171.167 313.092 160.846 307.436C150.524 301.78 142.47 293.919 136.682 283.855C130.894 273.79 128 262.494 128 249.962C128 237.429 130.894 226.133 136.682 216.068C142.47 206.004 150.524 198.143 160.846 192.487C171.167 186.825 182.77 184 195.661 184C213.052 184 227.736 189.205 239.714 199.622C251.686 210.033 258.761 223.681 260.923 240.562H219.275C217.509 234.994 214.488 230.514 210.208 227.117C205.933 223.725 201.141 222.027 195.837 222.027C188.536 222.027 182.649 224.594 178.176 229.728C173.692 234.862 171.459 241.606 171.459 249.956C171.459 258.256 173.714 264.973 178.215 270.107C182.726 275.241 188.591 277.803 195.837 277.803C201.482 277.803 206.439 275.934 210.714 272.196ZM360.692 237.896C368.896 245.756 373 255.926 373 268.387C373 282.634 368.279 294.123 358.833 302.841C349.381 311.564 336.936 315.923 321.476 315.923C306.203 315.923 293.785 311.548 284.218 302.797C274.645 294.04 269.864 282.7 269.864 268.755C269.864 261.142 271.178 253.479 273.803 245.773C276.427 238.066 280.487 229.634 285.984 220.488L305.405 188.222L346.448 188.216L323.467 226.287C325.762 226.166 327.572 226.105 328.903 226.105C341.882 226.105 352.478 230.036 360.692 237.896ZM332.98 280.084C335.934 277.077 337.414 273.18 337.414 268.387C337.414 263.599 335.934 259.669 332.98 256.596C330.02 253.523 326.185 251.99 321.481 251.99C316.772 251.99 312.932 253.529 309.983 256.596C307.017 259.669 305.543 263.599 305.543 268.387C305.543 273.18 307.017 277.077 309.977 280.084C312.932 283.096 316.772 284.602 321.476 284.602C326.185 284.602 330.026 283.096 332.98 280.084Z" fill="#242424"/>
</svg>
