<svg width="500" height="500" viewBox="0 0 500 500" fill="none" xmlns="http://www.w3.org/2000/svg">
<path d="M286.46 200.83C286.406 211.596 283.613 217.019 280.148 217.419C277.884 217.69 275.267 215.812 272.895 211.914C265.125 199.156 256.624 186.987 247.594 175.049C247.594 175.028 247.608 175.001 247.615 174.974C251.119 156.134 256.726 136.922 266.319 120.211C278.318 144.399 286.602 173.93 286.46 200.83ZM241.411 200.206C249.892 207.806 252.218 213.88 250.319 217.182C249.079 219.351 245.981 220.375 241.445 219.839C226.239 218.05 211.074 217.351 195.726 217.236C195.712 217.216 195.692 217.189 195.678 217.168C181.184 199.929 168.08 180.499 159.66 159.531C188.37 166.33 219.447 180.533 241.411 200.206ZM212.45 239.526C223.785 237.133 229.982 239.106 231.371 242.848C232.287 245.296 231.154 248.584 227.941 252.089C217.331 263.668 207.603 275.836 198.268 288.507H198.18C175.327 290.195 151.559 289.253 129.255 283.687C151.979 263.566 182.777 245.784 212.45 239.526ZM225.399 288.026C230.354 277.477 235.649 273.511 239.29 274.616C241.683 275.335 243.438 278.23 244.082 282.88C246.123 297.564 249.072 311.957 252.672 326.369C252.658 326.383 252.638 326.41 252.624 326.437C240.198 344.084 226.856 361.059 210.125 374.882C208.139 346.368 213.311 313.753 225.399 288.026ZM268.325 305.34C263.912 295.679 264.244 289.137 267.234 286.866C269.2 285.388 272.318 285.673 275.966 287.822C287.077 294.385 298.527 300.506 310.533 305.381C310.533 305.394 310.54 305.421 310.547 305.448C314.865 323.488 317.374 342.416 316.269 360.991C296.283 347.894 278.142 326.824 268.325 305.34ZM306.127 281.558C296.981 279.531 292.609 275.436 292.893 271.715C293.077 269.267 295.205 266.922 298.947 265.261C310.438 260.163 321.787 254.549 332.471 247.838C332.485 247.851 332.512 247.858 332.525 247.865C346.681 255.092 360.287 264.264 371.222 275.884C351.338 283.626 326.715 286.107 306.127 281.558ZM313.611 236.7C306.371 243.038 300.798 244.109 298.358 241.533C296.758 239.845 296.439 236.591 297.653 232.381C301.49 219.019 304.479 205.535 306.954 191.821C306.974 191.821 307.001 191.807 307.022 191.8C321.604 184.967 336.261 178.703 352.456 177.008C344.803 198.871 330.932 221.555 313.611 236.7Z" fill="#146E37"/>
<path d="M266.311 120.217C256.719 136.922 251.112 156.134 247.607 174.974C247.6 175.001 247.594 175.021 247.587 175.048C245.18 171.916 241.987 168.147 239.221 164.71C228.747 151.673 217.175 139.457 205.46 127.478C224.686 119.763 245.804 117.234 266.311 120.217ZM128 222.429C145.924 220.239 163.93 218.239 181.767 217.629C186.377 217.473 191.603 217.236 195.732 217.229C195.712 217.209 195.698 217.182 195.678 217.161C181.19 199.922 168.086 180.499 159.659 159.53C143.681 177.191 132.759 199.115 128 222.429ZM163.307 344.985C171.74 329.623 180.614 314.397 190.336 300.052C192.919 296.242 195.82 291.869 198.254 288.5C198.227 288.507 198.2 288.507 198.173 288.507C175.326 290.195 151.558 289.252 129.261 283.693C134.969 306.682 146.663 328.084 163.307 344.985ZM270.887 379.661C265.464 365.981 260.257 352.219 256.115 338.341C254.963 334.484 253.614 329.996 252.665 326.362C252.651 326.39 252.631 326.403 252.617 326.43C240.191 344.077 226.849 361.052 210.118 374.875C230.32 380.787 249.946 383.573 270.887 379.661ZM354.741 319.902C343.087 316.953 331.481 313.604 320.329 309.218C317.156 307.95 313.461 306.628 310.526 305.387C310.526 305.401 310.533 305.428 310.54 305.455C314.858 323.495 317.366 342.423 316.261 360.984C331.962 350.368 345.128 336.213 354.741 319.902ZM370.367 220.517C361.011 228.205 351.392 235.662 341.223 242.177C338.389 244.001 335.155 246.197 332.464 247.831C332.477 247.844 332.498 247.851 332.518 247.858C346.673 255.085 360.273 264.25 371.214 275.863C373.818 256.671 373.607 239.614 370.367 220.517ZM312.526 137.206C311.672 151.585 310.634 165.991 308.689 180.058C308.167 183.875 307.563 188.322 306.967 191.827C306.987 191.82 307.008 191.807 307.028 191.8C321.617 184.973 336.26 178.709 352.456 177.008C342.273 160.995 328.64 147.246 312.526 137.206Z" fill="#64C832"/>
</svg>
