<svg width="500" height="500" viewBox="0 0 500 500" fill="none" xmlns="http://www.w3.org/2000/svg">
<path d="M250.013 336.199C197.289 336.199 154.398 292.62 154.398 239.048C154.398 185.476 197.289 141.87 250.013 141.87C302.738 141.87 345.628 185.45 345.628 239.022C345.628 262.828 337.143 284.657 323.08 301.584L334.626 332.482C359.458 309.255 375 275.984 375 238.995C375.052 168.867 319.084 112 250.013 112C180.942 112 125 168.867 125 239.022C125 309.176 180.968 366.043 250.013 366.043C263.142 366.043 275.804 363.961 287.715 360.165L277.725 332.008C268.954 334.723 259.665 336.173 250.013 336.173V336.199Z" fill="#002520"/>
<path d="M156.786 388.426H189.972C190.802 388.426 191.555 387.898 191.84 387.081L199.702 364.54C188.675 360.295 178.374 354.547 169.084 347.483L154.918 385.71C154.425 387.029 155.384 388.452 156.786 388.452V388.426Z" fill="#002520"/>
<path d="M251 229.636L306.916 387.107C307.2 387.898 307.953 388.452 308.784 388.452H343.241C344.643 388.452 345.602 387.029 345.11 385.71L274.093 195.626C271.031 187.427 264.336 180.941 255.955 178.885C242.852 175.668 230.06 182.945 225.546 195.125L187.066 298.973C195.11 307.541 204.658 314.633 215.296 319.8L246.718 229.636C247.445 227.579 250.299 227.579 251.026 229.636H251Z" fill="#002520"/>
</svg>
