<svg width="500" height="500" viewBox="0 0 500 500" fill="none" xmlns="http://www.w3.org/2000/svg">
<path d="M311.203 265.18L287.529 207.175C285.199 201.8 283.459 197.854 279.917 197.854C276.375 197.854 274.605 201.955 272.461 207.175L258.045 240.605L243.816 207.175C241.672 202.049 239.963 197.854 236.359 197.854C232.755 197.854 231.077 201.707 228.716 207.175L205.042 265.211C204.173 266.986 203.791 268.96 203.933 270.932C204.075 272.903 204.737 274.801 205.852 276.434C206.966 278.066 208.493 279.374 210.277 280.224C212.062 281.074 214.039 281.436 216.009 281.274H226.448V294.478C226.448 296.76 227.355 298.949 228.969 300.563C230.583 302.177 232.772 303.084 235.054 303.084H238.161C240.444 303.084 242.633 302.177 244.246 300.563C245.86 298.949 246.767 296.76 246.767 294.478V288.015C246.783 287.788 246.783 287.559 246.767 287.332V281.118H269.758V287.332C269.742 287.559 269.742 287.788 269.758 288.015V294.478C269.758 296.76 270.665 298.949 272.278 300.563C273.892 302.177 276.081 303.084 278.364 303.084H281.471C283.751 303.075 285.935 302.166 287.547 300.554C289.159 298.942 290.069 296.758 290.077 294.478V281.274H300.485C302.459 281.439 304.441 281.078 306.23 280.226C308.018 279.375 309.548 278.064 310.664 276.427C311.779 274.79 312.44 272.886 312.579 270.91C312.717 268.934 312.328 266.956 311.452 265.18H311.203ZM248.103 274.842H240.212V294.478C240.212 295.054 239.982 295.608 239.575 296.015C239.167 296.423 238.614 296.652 238.037 296.652H234.93C234.353 296.652 233.8 296.423 233.392 296.015C232.984 295.608 232.755 295.054 232.755 294.478V274.842H216.009C215.094 275.014 214.149 274.918 213.288 274.563C212.427 274.209 211.687 273.613 211.157 272.847C210.628 272.081 210.332 271.178 210.305 270.248C210.279 269.317 210.523 268.398 211.007 267.603L234.619 209.723C234.961 209.008 235.645 207.423 236.297 206.056C236.763 206.988 237.291 208.2 237.913 209.66L254.565 248.838L248.196 265.211C247.541 266.729 247.195 268.363 247.179 270.017C247.163 271.671 247.477 273.312 248.103 274.842ZM262.053 272.699C261.62 273.339 261.037 273.864 260.355 274.227C259.672 274.59 258.911 274.78 258.138 274.78C257.365 274.78 256.604 274.59 255.921 274.227C255.239 273.864 254.656 273.339 254.224 272.699C253.819 271.899 253.609 271.016 253.609 270.12C253.609 269.224 253.819 268.341 254.224 267.541L258.138 257.506L262.177 267.572C262.555 268.378 262.74 269.26 262.718 270.15C262.697 271.04 262.469 271.912 262.053 272.699ZM305.114 272.699C304.527 273.407 303.775 273.961 302.925 274.312C302.075 274.664 301.152 274.804 300.236 274.718H283.428V294.353C283.428 294.93 283.199 295.483 282.791 295.891C282.383 296.299 281.83 296.528 281.253 296.528H278.146C277.57 296.528 277.016 296.299 276.609 295.891C276.201 295.483 275.972 294.93 275.972 294.353V274.842H268.173C268.814 273.318 269.144 271.681 269.144 270.027C269.144 268.373 268.814 266.736 268.173 265.211L261.587 248.838L278.457 209.66C279.078 208.169 279.607 206.988 280.042 206.056C280.725 207.392 281.409 208.977 281.688 209.66L305.176 267.541C305.606 268.355 305.831 269.262 305.831 270.182C305.831 271.102 305.606 272.009 305.176 272.823L305.114 272.699Z" fill="#165C7D"/>
<path d="M323.817 309.359C315.414 318.41 305.231 325.626 293.908 330.555C282.584 335.485 270.364 338.021 258.014 338.005C255.28 338.005 252.546 338.005 249.874 337.632C230.735 342.709 210.504 341.842 191.869 335.146C204.239 351.163 221.305 362.916 240.68 368.761C260.055 374.607 280.773 374.254 299.938 367.752C319.103 361.249 335.757 348.923 347.575 332.493C359.393 316.064 365.783 296.354 365.853 276.116C365.858 271.846 365.578 267.58 365.014 263.347C356.633 282.745 342.175 298.893 323.817 309.359Z" fill="url(#paint0_linear_304_2)"/>
<path d="M273.206 159.609C287.228 162.013 300.481 167.703 311.88 176.214C323.28 184.724 332.502 195.813 338.792 208.573C353.232 223.496 362.49 242.666 365.201 263.254C373.57 243.649 375.257 221.836 370.002 201.177C364.747 180.519 352.841 162.163 336.121 148.941C319.401 135.719 298.795 128.365 277.482 128.013C256.168 127.662 235.331 134.332 218.184 146.995C220.483 146.995 222.751 146.777 225.081 146.777C241.969 146.77 258.564 151.194 273.206 159.609Z" fill="url(#paint1_linear_304_2)"/>
<path d="M347.957 248.185C347.968 270.902 339.338 292.772 323.817 309.359C342.259 298.901 356.788 282.714 365.201 263.254C362.49 242.666 353.232 223.496 338.792 208.573C344.843 220.9 347.979 234.453 347.957 248.185Z" fill="#886B25"/>
<path d="M171.861 273.599C168.27 261.36 167.319 248.498 169.07 235.863C170.821 223.228 175.235 211.11 182.02 200.309C187.67 178.946 200.424 160.143 218.184 146.995C195.989 148.578 175.012 157.736 158.762 172.937C142.513 188.138 131.978 208.459 128.921 230.499C125.864 252.539 130.47 274.961 141.969 294.011C153.467 313.06 171.16 327.583 192.086 335.146C179.052 318.229 171.984 297.472 171.985 276.116C171.83 275.215 171.861 274.407 171.861 273.599Z" fill="url(#paint2_linear_304_2)"/>
<path d="M249.936 337.632C232.008 336.002 214.981 329.027 201.061 317.611C187.141 306.194 176.969 290.862 171.861 273.599C171.861 274.407 171.861 275.215 171.861 276.023C171.86 297.379 178.928 318.136 191.962 335.053C210.597 341.749 230.828 342.616 249.967 337.539L249.936 337.632Z" fill="#007D8A"/>
<path d="M182.02 200.309C191.513 185.289 205.234 173.412 221.459 166.171C237.684 158.929 255.688 156.646 273.206 159.609C258.521 151.157 241.869 146.721 224.926 146.746C222.596 146.746 220.328 146.746 218.029 146.964C200.321 160.145 187.623 178.956 182.02 200.309Z" fill="#007041"/>
<defs>
<linearGradient id="paint0_linear_304_2" x1="128.087" y1="250.513" x2="373.262" y2="250.513" gradientUnits="userSpaceOnUse">
<stop stop-color="#00A9CE"/>
<stop offset="0.41" stop-color="#00A7CB"/>
<stop offset="0.66" stop-color="#009FC3"/>
<stop offset="0.86" stop-color="#0091B5"/>
<stop offset="1" stop-color="#0083A6"/>
</linearGradient>
<linearGradient id="paint1_linear_304_2" x1="127.754" y1="250.321" x2="373.096" y2="250.321" gradientUnits="userSpaceOnUse">
<stop stop-color="#FFA300"/>
<stop offset="0.35" stop-color="#FCA200"/>
<stop offset="0.56" stop-color="#F49D00"/>
<stop offset="0.73" stop-color="#E69600"/>
<stop offset="0.89" stop-color="#D28B00"/>
<stop offset="1" stop-color="#BD8000"/>
</linearGradient>
<linearGradient id="paint2_linear_304_2" x1="127.556" y1="250.451" x2="372.578" y2="250.451" gradientUnits="userSpaceOnUse">
<stop stop-color="#00B140"/>
<stop offset="0.39" stop-color="#00AE40"/>
<stop offset="0.62" stop-color="#01A63E"/>
<stop offset="0.82" stop-color="#02983B"/>
<stop offset="0.99" stop-color="#038437"/>
<stop offset="1" stop-color="#038237"/>
</linearGradient>
</defs>
</svg>
