<svg width="500" height="500" viewBox="0 0 500 500" fill="none" xmlns="http://www.w3.org/2000/svg">
<path d="M362.5 125H137.5C130.596 125 125 130.596 125 137.5V362.5C125 369.404 130.596 375 137.5 375H362.5C369.404 375 375 369.404 375 362.5V137.5C375 130.596 369.404 125 362.5 125Z" fill="#0066FF"/>
<path d="M249.342 348.789C194.842 348.789 150.658 304.605 150.658 250.105C150.658 195.605 194.842 151.421 249.342 151.421C283.25 151.421 313.145 168.526 330.908 194.566L311.842 213.632C299.289 192.158 276.013 177.737 249.342 177.737C209.368 177.737 176.974 210.132 176.974 250.105C176.974 290.079 209.368 322.474 249.342 322.474C276.013 322.474 299.289 308.039 311.842 286.579L330.908 305.645C313.145 331.684 283.237 348.789 249.342 348.789Z" fill="white"/>
<path d="M332.237 236.947H207.237V263.263H332.237V236.947Z" fill="white"/>
</svg>
