<svg width="500" height="500" viewBox="0 0 500 500" fill="none" xmlns="http://www.w3.org/2000/svg">
<path d="M211.746 358.353C198.024 358.353 185.773 354.998 174.991 348.286C164.21 341.575 155.682 332.396 149.409 320.75C143.136 309.105 140 295.88 140 281.076C140 266.273 143.136 253.146 149.409 241.698C155.682 230.052 164.21 220.972 174.991 214.458C185.773 207.747 198.024 204.392 211.746 204.392C222.724 204.392 232.33 206.464 240.563 210.609C247.162 213.932 252.754 218.332 257.338 223.811C258.377 225.053 260.557 224.351 260.557 222.731V150.796C260.557 150.017 261.105 149.345 261.867 149.186L296.215 142.035C297.236 141.822 298.195 142.602 298.195 143.645V353.155C298.195 354.064 297.458 354.8 296.551 354.8H266.028C265.242 354.8 264.565 354.243 264.414 353.471L261.286 337.498C261.009 336.086 259.156 335.667 258.237 336.774C253.854 342.062 248.355 346.787 241.739 350.951C234.093 355.885 224.096 358.353 211.746 358.353ZM219.686 325.192C231.839 325.192 241.739 321.146 249.384 313.053C257.225 304.763 261.145 294.202 261.145 281.372C261.145 268.542 257.225 258.081 249.384 249.988C241.739 241.698 231.839 237.552 219.686 237.552C207.728 237.552 197.828 241.599 189.987 249.692C182.146 257.785 178.226 268.246 178.226 281.076C178.226 293.906 182.146 304.467 189.987 312.757C197.828 321.047 207.728 325.192 219.686 325.192Z" fill="#02070F"/>
<path d="M335.535 354.205C349.529 354.205 360.874 342.782 360.874 328.69C360.874 314.599 349.529 303.175 335.535 303.175C321.54 303.175 310.195 314.599 310.195 328.69C310.195 342.782 321.54 354.205 335.535 354.205Z" fill="#3B74E8"/>
</svg>
