<svg width="500" height="500" viewBox="0 0 500 500" fill="none" xmlns="http://www.w3.org/2000/svg">
<path fill-rule="evenodd" clip-rule="evenodd" d="M379.314 210.77C384.664 210.77 389 215.089 389 220.416V324.119C389 327.564 387.154 330.747 384.158 332.473L255.325 406.548C253.828 407.41 252.154 407.838 250.483 407.838C248.811 407.838 247.142 407.41 245.648 406.552L116.851 332.644C113.852 330.921 112 327.736 112 324.286V220.632C112 215.305 116.339 210.986 121.69 210.986C127.038 210.986 131.372 215.305 131.372 220.632V318.713L250.477 387.054L369.628 318.548V220.416C369.628 215.089 373.963 210.77 379.314 210.77ZM245.668 93.2965C248.666 91.5687 252.364 91.5687 255.361 93.2911L384.158 167.344C387.154 169.068 389 172.253 389 175.698C389 179.145 387.154 182.33 384.158 184.054L255.327 258.129C253.829 258.989 252.154 259.419 250.481 259.419C248.812 259.419 247.144 258.989 245.648 258.132L116.852 184.228C113.852 182.506 112.006 179.322 112 175.878C112 172.431 113.843 169.244 116.839 167.518L245.668 93.2965ZM250.523 112.787L141.062 175.852L250.477 238.635L359.942 175.698L250.523 112.787Z" fill="#00A857"/>
</svg>
