<svg width="500" height="500" viewBox="0 0 500 500" fill="none" xmlns="http://www.w3.org/2000/svg">
<path d="M322.263 289.511C322.263 304.933 309.997 317.421 294.881 317.421C291.7 317.421 289.13 314.794 289.13 311.576V189.044C289.13 185.8 291.7 183.2 294.881 183.2H316.512C319.693 183.2 322.263 185.826 322.263 189.044V289.511ZM261.316 317.421H239.685C236.504 317.421 233.934 314.794 233.934 311.576V222.593C233.934 219.349 236.504 216.748 239.685 216.748H261.316C264.497 216.748 267.067 219.374 267.067 222.593V311.576C267.067 314.794 264.497 317.421 261.316 317.421ZM206.144 317.421H184.514C181.333 317.421 178.763 314.794 178.763 311.576V205.909C178.763 202.665 181.333 200.064 184.514 200.064H206.144C209.326 200.064 211.896 202.69 211.896 205.909V311.576C211.87 314.794 209.3 317.421 206.144 317.421ZM289.13 110H211.87C153.951 110 107 157.864 107 216.903V384.672C107 387.917 109.57 390.517 112.751 390.517H289.13C347.049 390.517 394 342.653 394 283.614V216.903C394 157.89 347.049 110 289.13 110Z" fill="#E02B57"/>
</svg>
