<svg version="1.1" xmlns="http://www.w3.org/2000/svg" width="32" height="32" viewBox="0 0 32 32" fill="none">
<path d="M0 0 C0 6.93 0 13.86 0 21 C-3.17625 22.155 -6.3525 23.31 -9.625 24.5 C-10.6145166 24.86544922 -11.6040332 25.23089844 -12.62353516 25.60742188 C-21.20127282 28.66606939 -21.20127282 28.66606939 -26 28 C-28 26 -28 26 -28.12890625 22.78515625 C-26.52612557 17.4111269 -23.41693125 15.56066947 -18.9375 12.4375 C-18.19822266 11.89931641 -17.45894531 11.36113281 -16.69726562 10.80664062 C-15.21484859 9.72887286 -13.72574797 8.66023578 -12.22998047 7.60107422 C-9.30684031 5.50232743 -6.46696851 3.30099685 -3.63110352 1.08618164 C-2 0 -2 0 0 0 Z " fill="#F27021" transform="translate(30,2)"/>
</svg>
