<svg width="500" height="500" viewBox="0 0 500 500" fill="none" xmlns="http://www.w3.org/2000/svg">
<path fill-rule="evenodd" clip-rule="evenodd" d="M214.857 282.354L249.606 263.116L105 183.057V262.119C115.838 256.518 129.488 253.601 145.122 253.601C179.162 253.601 200.702 267.465 214.857 282.354ZM151.057 392.704C165.542 392.704 176.461 388.608 176.461 378.135C176.461 367.432 162.452 363.335 145.122 359.236C132.22 356.07 117.412 352.89 105 346.894V367.208C115.448 383.374 132.78 392.704 151.057 392.704Z" fill="#1CC29F"/>
<path fill-rule="evenodd" clip-rule="evenodd" d="M394.209 343.173V183.06L249.606 263.116L394.209 343.173Z" fill="#52595F"/>
<path fill-rule="evenodd" clip-rule="evenodd" d="M394.206 183.06L249.603 103L105 183.06L249.603 263.114L394.206 183.06Z" fill="#ACE4D6"/>
<path fill-rule="evenodd" clip-rule="evenodd" d="M249.603 263.114L214.855 282.351L177.61 302.976C168.092 295.719 155.988 290.482 144.884 290.482C131.351 290.482 124.467 294.806 124.467 302.777C124.467 311.998 133.884 316.394 146.938 319.955C149.675 320.703 152.564 321.417 155.568 322.129C184.298 328.73 222.756 337.155 222.756 374.944C222.756 382.879 221.019 390.785 217.2 398H394.206V343.174L249.603 263.114Z" fill="#373B3F"/>
<path fill-rule="evenodd" clip-rule="evenodd" d="M155.568 322.126C152.679 321.451 149.802 320.727 146.938 319.955C133.884 316.393 124.467 311.997 124.467 302.779C124.467 294.805 131.351 290.485 144.887 290.485C155.988 290.485 168.092 295.719 177.61 302.975L214.855 282.354C200.7 267.462 179.159 253.601 145.122 253.601C129.488 253.601 115.838 256.515 105 262.119V346.891C117.409 352.887 132.22 356.068 145.122 359.236C162.452 363.335 176.461 367.432 176.461 378.135C176.461 388.608 165.539 392.704 151.057 392.704C132.777 392.704 115.445 383.371 105 367.208V398H217.2C221.016 390.785 222.758 382.878 222.758 374.944C222.758 337.155 184.298 328.727 155.57 322.129" fill="white"/>
</svg>
