<svg viewBox="0 0 500 500" fill="none" xmlns="http://www.w3.org/2000/svg"><path d="M237.815 129.661C249.01 126.573 260.958 127.82 271.274 133.154C281.59 138.489 289.515 147.517 293.467 158.437C299.245 174.34 295.063 193.283 283.457 205.511C279.554 209.794 274.194 212.277 269.911 216.078C267.009 218.461 268.048 223.592 271.432 224.948C273.725 226.215 276.348 225.164 278.743 224.796C291.148 221.92 303.502 218.79 315.92 215.926C319.773 215.069 323.805 215.578 327.324 217.367C330.842 219.157 333.629 222.115 335.205 225.734C336.802 230.498 337.74 235.453 338.918 240.356C340.844 248.669 335.446 257.919 327.134 260.06C314.564 263.367 301.792 266.117 289.26 269.373C284.838 270.463 280.567 273.681 279.833 278.433C278.87 282.716 281.353 286.745 283.913 289.977C296.711 305.908 309.508 321.836 322.306 337.759C324.191 340.028 325.459 342.743 325.99 345.643C326.52 348.544 326.295 351.532 325.335 354.321C323.117 361.049 316.465 364.458 311.396 368.93C304.731 374.899 293.353 374.252 287.613 367.321C277.4 355.132 267.529 342.651 257.455 330.347C255.301 327.749 252.095 325.114 248.484 326.039C245.899 327.091 243.66 328.847 242.022 331.107C232.785 342.638 223.395 354.055 214.145 365.547C212.373 368.107 209.942 370.142 207.11 371.435C204.278 372.729 201.149 373.233 198.053 372.897C190.919 372.415 186.269 366.409 180.871 362.519C173.268 357.083 171.76 345.147 177.767 337.988C190.438 322.035 203.312 306.158 216.084 290.268C218.821 286.923 221.317 282.779 220.342 278.268C219.721 273.466 215.184 270.438 210.838 269.31C198.509 266.206 186.129 263.38 173.813 260.275C169.781 259.24 166.267 256.765 163.933 253.318C161.599 249.871 160.606 245.689 161.142 241.56C162.042 236.631 163.283 231.765 164.614 226.938C165.935 223.046 168.631 219.771 172.196 217.727C175.761 215.683 179.95 215.011 183.975 215.838C197.572 218.815 211.016 222.528 224.65 225.303C229.718 227.14 234.292 220.412 230.808 216.433C227.311 213.037 222.736 211.01 219.214 207.652C202.589 193.169 199.295 165.939 212.143 147.971C218.305 139.062 227.385 132.586 237.815 129.661Z" fill="#78009D"/></svg>
