<svg width="500" height="500" viewBox="0 0 500 500" fill="none" xmlns="http://www.w3.org/2000/svg">
<path d="M336.42 125H163.58C142.273 125 125 142.273 125 163.58V336.42C125 357.727 142.273 375 163.58 375H336.42C357.727 375 375 357.727 375 336.42V163.58C375 142.273 357.727 125 336.42 125Z" fill="#00AFF0"/>
<path d="M249.661 331.403C294.807 331.403 331.405 294.805 331.405 249.659C331.405 204.513 294.807 167.915 249.661 167.915C204.515 167.915 167.917 204.513 167.917 249.659C167.917 294.805 204.515 331.403 249.661 331.403Z" fill="white"/>
<path fill-rule="evenodd" clip-rule="evenodd" d="M259.693 206.062C237.625 206.062 219.735 223.762 219.735 245.595H259.429C281.497 245.595 299.387 227.895 299.387 206.062H259.693ZM239.626 255.086H199.932C199.932 276.919 217.822 294.618 239.89 294.618H279.585C279.585 272.785 261.695 255.086 239.626 255.086Z" fill="#00AFF0"/>
</svg>
