<svg width="500" height="500" viewBox="0 0 500 500" fill="none" xmlns="http://www.w3.org/2000/svg">
<path d="M265.801 281.276H276.937C277.045 281.284 277.154 281.27 277.257 281.234C277.359 281.198 277.453 281.142 277.534 281.07C277.614 280.997 277.678 280.908 277.723 280.81C277.768 280.712 277.792 280.605 277.794 280.497V249.875C277.794 241.192 282.079 236.616 289.476 236.616C296.873 236.616 301.079 241.192 301.079 249.875V280.501C301.081 280.609 301.106 280.715 301.15 280.814C301.195 280.912 301.26 281.001 301.34 281.074C301.42 281.146 301.514 281.202 301.617 281.238C301.719 281.273 301.828 281.288 301.936 281.28H313.072C313.18 281.288 313.289 281.273 313.392 281.238C313.494 281.202 313.589 281.146 313.669 281.074C313.749 281.001 313.813 280.912 313.858 280.814C313.903 280.715 313.927 280.609 313.929 280.501V249.953C313.929 236.848 306.61 225.373 289.474 225.373C272.338 225.373 264.944 236.848 264.944 249.953V280.501C264.947 280.609 264.971 280.715 265.017 280.813C265.062 280.911 265.126 280.999 265.206 281.071C265.286 281.143 265.38 281.199 265.483 281.234C265.585 281.27 265.693 281.284 265.801 281.276Z" fill="#00A868"/>
<path d="M189.17 281.976C193.22 281.976 195.867 281.51 197.035 281.045C197.209 280.976 197.36 280.859 197.471 280.708C197.581 280.557 197.647 280.378 197.659 280.192V271.037C197.659 270.493 197.425 270.184 196.724 270.184C196.178 270.184 194.621 270.493 193.375 270.493C188.546 270.493 186.445 268.711 186.445 264.523V238.711H196.724C196.951 238.709 197.168 238.618 197.328 238.458C197.488 238.299 197.579 238.083 197.581 237.857V227.855C197.579 227.63 197.488 227.414 197.328 227.254C197.168 227.095 196.951 227.004 196.724 227.002H186.056V218.319C186.056 217.388 185.665 217 184.964 217H174.45C173.595 217 173.206 217.39 173.206 218.319V265.846C173.206 277.4 179.668 281.976 189.17 281.976Z" fill="#00A868"/>
<path d="M144.472 282.595C157.011 282.595 165.967 274.919 165.967 264.917C165.967 253.674 158.49 250.419 148.289 248.247L143.226 247.163C139.411 246.31 137.308 244.525 137.308 241.502C137.308 237.626 141.201 235.532 146.575 235.532C154.129 235.532 159.269 238.943 160.047 238.943C160.264 238.928 160.472 238.856 160.651 238.733C160.829 238.61 160.971 238.442 161.061 238.245L163.086 230.725C163.477 229.716 163.397 229.484 162.694 229.096C158.177 226.771 153.348 225.452 146.495 225.452C133.802 225.452 125 232.741 125 242.433C125 251.588 132.088 256.621 142.216 258.795L147.356 259.88C151.484 260.733 153.812 262.361 153.812 265.85C153.812 269.416 151.009 272.517 144.388 272.517C135.042 272.517 128.657 268.797 127.645 268.797C127.021 268.797 126.788 269.107 126.555 270.114L125.231 276.396C124.84 277.712 125.231 278.566 126.088 278.953C129.283 280.735 138.004 282.595 144.472 282.595Z" fill="#00A868"/>
<path d="M229.435 271.817C221.257 271.817 213.784 265.691 213.784 254.139C213.784 242.586 221.259 236.608 229.435 236.608C237.689 236.608 245.01 242.578 245.01 254.139C245.01 265.769 237.689 271.817 229.435 271.817ZM229.435 282.982C245.789 282.982 257.704 270.81 257.704 254.139C257.704 237.467 245.789 225.373 229.435 225.373C213.158 225.373 201.165 237.469 201.165 254.139C201.165 270.808 213.158 282.982 229.435 282.982Z" fill="#00A868"/>
<path d="M374.56 253.519C374.56 236.379 364.669 225.373 348.931 225.373C334.135 225.373 321.363 236.694 321.363 253.907C321.363 272.283 334.446 282.982 348.463 282.982C360.224 282.982 367.008 278.368 371.206 272.748C372.016 271.66 372.182 271.19 372.182 270.886C372.182 270.583 371.986 270.345 371.282 269.718L366.374 265.454C365.201 264.447 364.809 264.135 364.418 264.135C364.027 264.135 363.794 264.369 363.483 264.756C360.133 269.254 355.462 271.812 349.154 271.812C341.197 271.812 335.895 266.43 334.55 257.699H370.486C372.992 257.705 374.56 256.92 374.56 253.519ZM348.469 236.151C356.968 236.151 361.466 241.86 361.71 248.169H334.739C336.216 241.394 340.835 236.151 348.469 236.151Z" fill="#00A868"/>
</svg>
